<?xml version="1.0" standalone="no"?>
<!DOCTYPE svg PUBLIC "-//W3C//DTD SVG 20010904//EN"
 "http://www.w3.org/TR/2001/REC-SVG-20010904/DTD/svg10.dtd">
<svg version="1.0" xmlns="http://www.w3.org/2000/svg"
 width="200.000000pt" height="200.000000pt" viewBox="0 0 200.000000 200.000000"
 preserveAspectRatio="xMidYMid meet">
<metadata>
Created by potrace 1.14, written by Peter Selinger 2001-2017
</metadata>
<g transform="translate(0.000000,200.000000) scale(0.100000,-0.100000)"
fill="#000000" stroke="none">
<path d="M124 1281 c-2 -2 -4 -123 -4 -268 l0 -263 75 0 74 0 3 150 3 150 109
-150 109 -150 69 0 68 0 0 268 0 267 -72 -2 -73 -1 0 -141 c0 -78 -2 -141 -5
-140 -3 0 -51 64 -106 142 l-102 142 -72 0 c-39 0 -73 -2 -76 -4z"/>
<path d="M744 1281 c-2 -2 -4 -123 -4 -268 l0 -263 80 0 80 0 0 100 0 100 90
0 90 0 0 -100 0 -100 80 0 80 0 -2 266 -3 266 -75 0 -75 0 -3 -96 -3 -96 -89
0 -89 0 -3 96 -3 96 -73 1 c-41 1 -76 0 -78 -2z"/>
<path d="M1354 1281 c-2 -2 -4 -123 -4 -268 l0 -264 73 3 72 3 0 148 c0 81 2
147 5 147 3 -1 54 -68 113 -150 l108 -150 70 0 69 0 -2 266 -3 266 -70 0 -70
0 -5 -140 -5 -139 -95 130 c-52 71 -98 134 -101 139 -6 9 -147 17 -155 9z"/>
</g>
</svg>
